<svg viewBox="0 0 24 24" xmlns="http://www.w3.org/2000/svg"><path d="m2 2h20v20h-20z" fill="none"/><path d="m6.45 18.24a3 3 0 1 1 3-3 3 3 0 0 1 -3 3zm3.63-.4a4.43 4.43 0 1 0 -8.08-2.52 4.91 4.91 0 0 0 0 .67 3.43 3.43 0 0 0 .09.44l.06.21a4.59 4.59 0 0 0 .34.79 4.24 4.24 0 0 0 .76 1l.15.15.33.27a4.16 4.16 0 0 0 .73.44 4.44 4.44 0 0 0 4.54-.29l2.93 2.93a.33.33 0 0 0 .47 0l.66-.65a.33.33 0 0 0 0-.47z" fill="#4285f4"/><path d="m11.8 16.58a5.41 5.41 0 0 0 .2-1.51 5.53 5.53 0 0 0 -5.61-5.42 5.82 5.82 0 0 0 -1.92.35v-4.17a.62.62 0 0 1 .62-.62h16.19a.63.63 0 0 1 .63.62v10.17a.63.63 0 0 1 -.63.63z" fill="#aecbfa"/><g fill-rule="evenodd"><path d="m15.58 5.21v-1.48h-4.44v1.48h-1.49v-2.34a.63.63 0 0 1 .63-.62h6.16a.62.62 0 0 1 .62.62v2.34z" fill="#669df6"/><path d="m15.58 5.21 1.48-.47v.47z" fill="#4285f4"/><path d="m9.64 5.21 1.49-.54v.54z" fill="#4285f4"/></g></svg>